<mxfile host="65bd71144e">
    <diagram id="hKGmH1hE8x6YEMQ1G8pj" name="Page-1">
        <mxGraphModel dx="2520" dy="938" grid="1" gridSize="10" guides="1" tooltips="1" connect="1" arrows="1" fold="1" page="1" pageScale="1" pageWidth="850" pageHeight="1100" math="0" shadow="0">
            <root>
                <mxCell id="0"/>
                <mxCell id="1" parent="0"/>
                <mxCell id="7" style="html=1;fontSize=15;" edge="1" parent="1" source="2" target="6">
                    <mxGeometry relative="1" as="geometry"/>
                </mxCell>
                <mxCell id="8" value="ar_valid*aw_valid'" style="edgeLabel;html=1;align=center;verticalAlign=middle;resizable=0;points=[];fontSize=15;" vertex="1" connectable="0" parent="7">
                    <mxGeometry x="-0.2262" y="-1" relative="1" as="geometry">
                        <mxPoint x="-24" y="28" as="offset"/>
                    </mxGeometry>
                </mxCell>
                <mxCell id="11" style="edgeStyle=none;html=1;fontSize=15;" edge="1" parent="1" source="2" target="10">
                    <mxGeometry relative="1" as="geometry"/>
                </mxCell>
                <mxCell id="12" value="ar_valid'*aw_valid" style="edgeLabel;html=1;align=center;verticalAlign=middle;resizable=0;points=[];fontSize=15;" vertex="1" connectable="0" parent="11">
                    <mxGeometry x="0.0803" y="2" relative="1" as="geometry">
                        <mxPoint as="offset"/>
                    </mxGeometry>
                </mxCell>
                <mxCell id="14" value="" style="edgeStyle=none;html=1;fontSize=15;" edge="1" parent="1" source="2" target="13">
                    <mxGeometry relative="1" as="geometry"/>
                </mxCell>
                <mxCell id="15" value="ar_valid*aw_valid" style="edgeLabel;html=1;align=center;verticalAlign=middle;resizable=0;points=[];fontSize=15;" vertex="1" connectable="0" parent="14">
                    <mxGeometry x="-0.2655" relative="1" as="geometry">
                        <mxPoint as="offset"/>
                    </mxGeometry>
                </mxCell>
                <mxCell id="22" style="html=1;fontSize=15;" edge="1" parent="1" target="2">
                    <mxGeometry relative="1" as="geometry">
                        <mxPoint x="-210" y="68.03999999999999" as="targetPoint"/>
                        <mxPoint x="-237.7958166908238" y="71.00265382561568" as="sourcePoint"/>
                    </mxGeometry>
                </mxCell>
                <mxCell id="2" value="&lt;font style=&quot;font-size: 15px;&quot;&gt;idle&lt;/font&gt;" style="ellipse;whiteSpace=wrap;html=1;" vertex="1" parent="1">
                    <mxGeometry x="-130" y="98.03999999999999" width="110" height="70" as="geometry"/>
                </mxCell>
                <mxCell id="4" style="edgeStyle=orthogonalEdgeStyle;html=1;fontSize=15;curved=1;" edge="1" parent="1" source="2" target="2">
                    <mxGeometry relative="1" as="geometry">
                        <Array as="points">
                            <mxPoint x="20" y="158.04"/>
                        </Array>
                    </mxGeometry>
                </mxCell>
                <mxCell id="5" value="ar_valid'*aw_valid'" style="edgeLabel;html=1;align=center;verticalAlign=middle;resizable=0;points=[];fontSize=15;" vertex="1" connectable="0" parent="4">
                    <mxGeometry x="0.135" y="-4" relative="1" as="geometry">
                        <mxPoint x="34" as="offset"/>
                    </mxGeometry>
                </mxCell>
                <mxCell id="29" style="edgeStyle=none;html=1;fontFamily=Courier New;fontSize=15;fontColor=#66B2FF;" edge="1" parent="1" source="6" target="28">
                    <mxGeometry relative="1" as="geometry"/>
                </mxCell>
                <mxCell id="18" style="edgeStyle=none;html=1;fontSize=15;" edge="1" parent="1" source="13" target="6">
                    <mxGeometry relative="1" as="geometry">
                        <mxPoint x="-204.11067793709117" y="444.08126056602333" as="targetPoint"/>
                    </mxGeometry>
                </mxCell>
                <mxCell id="20" value="rnd[0]'" style="edgeLabel;html=1;align=center;verticalAlign=middle;resizable=0;points=[];fontSize=15;" vertex="1" connectable="0" parent="18">
                    <mxGeometry x="0.2919" y="-2" relative="1" as="geometry">
                        <mxPoint as="offset"/>
                    </mxGeometry>
                </mxCell>
                <mxCell id="19" style="edgeStyle=none;html=1;fontSize=15;" edge="1" parent="1" source="13" target="10">
                    <mxGeometry relative="1" as="geometry">
                        <mxPoint x="29.67686177696305" y="423.83994097040835" as="targetPoint"/>
                    </mxGeometry>
                </mxCell>
                <mxCell id="21" value="rnd[0]" style="edgeLabel;html=1;align=center;verticalAlign=middle;resizable=0;points=[];fontSize=15;" vertex="1" connectable="0" parent="19">
                    <mxGeometry x="-0.3559" relative="1" as="geometry">
                        <mxPoint as="offset"/>
                    </mxGeometry>
                </mxCell>
                <mxCell id="13" value="&lt;font style=&quot;font-size: 15px;&quot;&gt;decide_random&lt;/font&gt;" style="ellipse;whiteSpace=wrap;html=1;" vertex="1" parent="1">
                    <mxGeometry x="-130" y="288.04" width="110" height="70" as="geometry"/>
                </mxCell>
                <mxCell id="34" value="" style="edgeStyle=none;html=1;fontFamily=Courier New;fontSize=15;fontColor=#66B2FF;" edge="1" parent="1" source="28" target="33">
                    <mxGeometry relative="1" as="geometry"/>
                </mxCell>
                <mxCell id="31" value="" style="group" vertex="1" connectable="0" parent="1">
                    <mxGeometry x="-440" y="268.04" width="260" height="120" as="geometry"/>
                </mxCell>
                <mxCell id="6" value="&lt;span style=&quot;font-size: 15px;&quot;&gt;ar_transfer&lt;br&gt;&lt;/span&gt;" style="ellipse;whiteSpace=wrap;html=1;" vertex="1" parent="31">
                    <mxGeometry width="110" height="70" as="geometry"/>
                </mxCell>
                <mxCell id="24" value="&lt;font color=&quot;#66b2ff&quot; face=&quot;Courier New&quot;&gt;&lt;b&gt;ar_ready := 1&lt;br&gt;reg_addr := ar_address&lt;br&gt;&lt;/b&gt;&lt;/font&gt;" style="text;html=1;strokeColor=none;fillColor=none;align=left;verticalAlign=middle;whiteSpace=wrap;rounded=0;fontSize=15;" vertex="1" parent="31">
                    <mxGeometry x="40" y="50" width="220" height="70" as="geometry"/>
                </mxCell>
                <mxCell id="32" value="" style="group" vertex="1" connectable="0" parent="1">
                    <mxGeometry x="150" y="298.04" width="270" height="120" as="geometry"/>
                </mxCell>
                <mxCell id="10" value="&lt;span style=&quot;font-size: 15px;&quot;&gt;aw_transfer&lt;br&gt;&lt;/span&gt;" style="ellipse;whiteSpace=wrap;html=1;" vertex="1" parent="32">
                    <mxGeometry width="110" height="70" as="geometry"/>
                </mxCell>
                <mxCell id="26" value="&lt;font color=&quot;#66b2ff&quot; face=&quot;Courier New&quot;&gt;&lt;b&gt;aw_ready := 1&lt;br&gt;reg_addr := aw_address&lt;br&gt;&lt;/b&gt;&lt;/font&gt;" style="text;html=1;strokeColor=none;fillColor=none;align=left;verticalAlign=middle;whiteSpace=wrap;rounded=0;fontSize=15;" vertex="1" parent="32">
                    <mxGeometry x="50" y="50" width="220" height="70" as="geometry"/>
                </mxCell>
                <mxCell id="37" value="" style="edgeStyle=none;html=1;fontFamily=Courier New;fontSize=15;fontColor=#66B2FF;" edge="1" parent="1" source="33" target="36">
                    <mxGeometry relative="1" as="geometry"/>
                </mxCell>
                <mxCell id="42" value="" style="edgeStyle=none;html=1;fontFamily=Courier New;fontSize=15;fontColor=#66B2FF;" edge="1" parent="1" source="36" target="41">
                    <mxGeometry relative="1" as="geometry"/>
                </mxCell>
                <mxCell id="39" value="" style="group" vertex="1" connectable="0" parent="1">
                    <mxGeometry x="-560" y="368.04" width="220" height="90" as="geometry"/>
                </mxCell>
                <mxCell id="28" value="&lt;span style=&quot;font-size: 15px;&quot;&gt;complete_ar&lt;br&gt;&lt;/span&gt;" style="ellipse;whiteSpace=wrap;html=1;" vertex="1" parent="39">
                    <mxGeometry width="110" height="70" as="geometry"/>
                </mxCell>
                <mxCell id="30" value="&lt;font color=&quot;#66b2ff&quot; face=&quot;Courier New&quot;&gt;&lt;b&gt;ar_ready := 0&lt;br&gt;&lt;/b&gt;&lt;/font&gt;" style="text;html=1;strokeColor=none;fillColor=none;align=left;verticalAlign=middle;whiteSpace=wrap;rounded=0;fontSize=15;" vertex="1" parent="39">
                    <mxGeometry x="90" y="60" width="130" height="30" as="geometry"/>
                </mxCell>
                <mxCell id="40" value="" style="group" vertex="1" connectable="0" parent="1">
                    <mxGeometry x="-580" y="518.04" width="300" height="120" as="geometry"/>
                </mxCell>
                <mxCell id="33" value="&lt;span style=&quot;font-size: 15px;&quot;&gt;register_read_data&lt;br&gt;&lt;/span&gt;" style="ellipse;whiteSpace=wrap;html=1;" vertex="1" parent="40">
                    <mxGeometry width="150" height="70" as="geometry"/>
                </mxCell>
                <mxCell id="35" value="&lt;font color=&quot;#66b2ff&quot; face=&quot;Courier New&quot;&gt;&lt;b&gt;out_enable := 1&lt;br&gt;reg_data := ram_out&lt;br&gt;&lt;/b&gt;&lt;/font&gt;" style="text;html=1;strokeColor=none;fillColor=none;align=left;verticalAlign=middle;whiteSpace=wrap;rounded=0;fontSize=15;" vertex="1" parent="40">
                    <mxGeometry x="110" y="50" width="190" height="70" as="geometry"/>
                </mxCell>
                <mxCell id="53" value="" style="edgeStyle=none;html=1;fontFamily=Courier New;fontSize=15;fontColor=#66B2FF;" edge="1" parent="1" source="41" target="52">
                    <mxGeometry relative="1" as="geometry"/>
                </mxCell>
                <mxCell id="59" value="r_ready" style="edgeLabel;html=1;align=center;verticalAlign=middle;resizable=0;points=[];fontSize=15;fontFamily=Helvetica;fontColor=#FFFFFF;" vertex="1" connectable="0" parent="53">
                    <mxGeometry x="0.3618" y="-1" relative="1" as="geometry">
                        <mxPoint x="1" y="-24" as="offset"/>
                    </mxGeometry>
                </mxCell>
                <mxCell id="41" value="&lt;span style=&quot;font-size: 15px;&quot;&gt;wait_r_ready&lt;br&gt;&lt;/span&gt;" style="ellipse;whiteSpace=wrap;html=1;" vertex="1" parent="1">
                    <mxGeometry x="-580" y="798.04" width="150" height="70" as="geometry"/>
                </mxCell>
                <mxCell id="44" style="edgeStyle=orthogonalEdgeStyle;html=1;fontSize=15;curved=1;" edge="1" parent="1" source="41" target="41">
                    <mxGeometry relative="1" as="geometry">
                        <mxPoint x="-443.2880183276932" y="808.0399999999998" as="sourcePoint"/>
                        <mxPoint x="-443.2880183276932" y="858.0399999999998" as="targetPoint"/>
                        <Array as="points">
                            <mxPoint x="-387" y="808.04"/>
                            <mxPoint x="-387" y="858.04"/>
                        </Array>
                    </mxGeometry>
                </mxCell>
                <mxCell id="45" value="r_ready'" style="edgeLabel;html=1;align=center;verticalAlign=middle;resizable=0;points=[];fontSize=15;" vertex="1" connectable="0" parent="44">
                    <mxGeometry x="0.135" y="-4" relative="1" as="geometry">
                        <mxPoint x="6" as="offset"/>
                    </mxGeometry>
                </mxCell>
                <mxCell id="55" value="" style="group" vertex="1" connectable="0" parent="1">
                    <mxGeometry x="-580" y="658.04" width="230" height="90" as="geometry"/>
                </mxCell>
                <mxCell id="36" value="&lt;span style=&quot;font-size: 15px;&quot;&gt;output_read_data&lt;br&gt;&lt;/span&gt;" style="ellipse;whiteSpace=wrap;html=1;" vertex="1" parent="55">
                    <mxGeometry width="150" height="70" as="geometry"/>
                </mxCell>
                <mxCell id="38" value="&lt;font color=&quot;#66b2ff&quot; face=&quot;Courier New&quot;&gt;&lt;b&gt;r_valid := 1&lt;br&gt;&lt;/b&gt;&lt;/font&gt;" style="text;html=1;strokeColor=none;fillColor=none;align=left;verticalAlign=middle;whiteSpace=wrap;rounded=0;fontSize=15;" vertex="1" parent="55">
                    <mxGeometry x="100" y="70" width="130" height="20" as="geometry"/>
                </mxCell>
                <mxCell id="57" value="" style="group" vertex="1" connectable="0" parent="1">
                    <mxGeometry x="-580" y="948.04" width="250" height="80" as="geometry"/>
                </mxCell>
                <mxCell id="52" value="&lt;span style=&quot;font-size: 15px;&quot;&gt;complete_r&lt;br&gt;&lt;/span&gt;" style="ellipse;whiteSpace=wrap;html=1;" vertex="1" parent="57">
                    <mxGeometry width="150" height="70" as="geometry"/>
                </mxCell>
                <mxCell id="54" value="&lt;font color=&quot;#66b2ff&quot; face=&quot;Courier New&quot;&gt;&lt;b&gt;r_valid := 0&lt;br&gt;&lt;/b&gt;&lt;/font&gt;" style="text;html=1;strokeColor=none;fillColor=none;align=left;verticalAlign=middle;whiteSpace=wrap;rounded=0;fontSize=15;" vertex="1" parent="57">
                    <mxGeometry x="120" y="60" width="130" height="20" as="geometry"/>
                </mxCell>
                <mxCell id="61" style="edgeStyle=orthogonalEdgeStyle;curved=1;html=1;fontFamily=Helvetica;fontSize=15;fontColor=#FFFFFF;" edge="1" parent="1" source="52" target="2">
                    <mxGeometry relative="1" as="geometry">
                        <Array as="points">
                            <mxPoint x="-800" y="988.04"/>
                            <mxPoint x="-800" y="133.04"/>
                        </Array>
                    </mxGeometry>
                </mxCell>
                <mxCell id="62" style="html=1;fontFamily=Helvetica;fontSize=15;fontColor=#FFFFFF;" edge="1" parent="1" source="10" target="63">
                    <mxGeometry relative="1" as="geometry">
                        <mxPoint x="90" y="418.04" as="targetPoint"/>
                    </mxGeometry>
                </mxCell>
                <mxCell id="65" value="" style="group" vertex="1" connectable="0" parent="1">
                    <mxGeometry x="-10" y="418.04" width="220" height="90" as="geometry"/>
                </mxCell>
                <mxCell id="63" value="&lt;font style=&quot;font-size: 15px;&quot;&gt;complete_aw&lt;/font&gt;" style="ellipse;whiteSpace=wrap;html=1;" vertex="1" parent="65">
                    <mxGeometry width="110" height="70" as="geometry"/>
                </mxCell>
                <mxCell id="64" value="&lt;font color=&quot;#66b2ff&quot; face=&quot;Courier New&quot;&gt;&lt;b&gt;aw_ready := 0&lt;br&gt;&lt;/b&gt;&lt;/font&gt;" style="text;html=1;strokeColor=none;fillColor=none;align=left;verticalAlign=middle;whiteSpace=wrap;rounded=0;fontSize=15;" vertex="1" parent="65">
                    <mxGeometry x="90" y="60" width="130" height="30" as="geometry"/>
                </mxCell>
                <mxCell id="71" value="" style="html=1;fontFamily=Helvetica;fontSize=15;fontColor=#FFFFFF;" edge="1" parent="1" source="66" target="70">
                    <mxGeometry relative="1" as="geometry"/>
                </mxCell>
                <mxCell id="72" value="w_valid" style="edgeLabel;html=1;align=center;verticalAlign=middle;resizable=0;points=[];fontSize=15;fontFamily=Helvetica;fontColor=#FFFFFF;" vertex="1" connectable="0" parent="71">
                    <mxGeometry x="-0.2833" y="-1" relative="1" as="geometry">
                        <mxPoint as="offset"/>
                    </mxGeometry>
                </mxCell>
                <mxCell id="66" value="&lt;font style=&quot;font-size: 15px;&quot;&gt;wait_w_valid&lt;/font&gt;" style="ellipse;whiteSpace=wrap;html=1;" vertex="1" parent="1">
                    <mxGeometry x="-189.51" y="438.04" width="110" height="70" as="geometry"/>
                </mxCell>
                <mxCell id="67" value="" style="edgeStyle=none;html=1;fontFamily=Helvetica;fontSize=15;fontColor=#FFFFFF;" edge="1" parent="1" source="63" target="66">
                    <mxGeometry relative="1" as="geometry"/>
                </mxCell>
                <mxCell id="68" style="edgeStyle=orthogonalEdgeStyle;html=1;fontFamily=Helvetica;fontSize=15;fontColor=#FFFFFF;curved=1;" edge="1" parent="1" source="66" target="66">
                    <mxGeometry relative="1" as="geometry">
                        <Array as="points">
                            <mxPoint x="-229.51" y="498.04"/>
                        </Array>
                    </mxGeometry>
                </mxCell>
                <mxCell id="69" value="w_valid'" style="edgeLabel;html=1;align=center;verticalAlign=middle;resizable=0;points=[];fontSize=15;fontFamily=Helvetica;fontColor=#FFFFFF;" vertex="1" connectable="0" parent="68">
                    <mxGeometry x="-0.4444" y="-9" relative="1" as="geometry">
                        <mxPoint x="-12" y="34" as="offset"/>
                    </mxGeometry>
                </mxCell>
                <mxCell id="74" value="" style="group" vertex="1" connectable="0" parent="1">
                    <mxGeometry x="-190" y="578.04" width="270" height="100" as="geometry"/>
                </mxCell>
                <mxCell id="70" value="&lt;font style=&quot;font-size: 15px;&quot;&gt;w_transfer&lt;/font&gt;" style="ellipse;whiteSpace=wrap;html=1;" vertex="1" parent="74">
                    <mxGeometry width="110" height="70" as="geometry"/>
                </mxCell>
                <mxCell id="73" value="&lt;font color=&quot;#66b2ff&quot; face=&quot;Courier New&quot;&gt;&lt;b&gt;w_ready := 1&lt;br&gt;reg_data := w_data&lt;br&gt;&lt;/b&gt;&lt;/font&gt;" style="text;html=1;strokeColor=none;fillColor=none;align=left;verticalAlign=middle;whiteSpace=wrap;rounded=0;fontSize=15;" vertex="1" parent="74">
                    <mxGeometry x="90" y="60" width="180" height="40" as="geometry"/>
                </mxCell>
                <mxCell id="76" value="" style="edgeStyle=none;html=1;fontFamily=Helvetica;fontSize=15;fontColor=#FFFFFF;" edge="1" parent="1" source="70" target="75">
                    <mxGeometry relative="1" as="geometry"/>
                </mxCell>
                <mxCell id="79" value="" style="group" vertex="1" connectable="0" parent="1">
                    <mxGeometry x="-190" y="728.04" width="220" height="80" as="geometry"/>
                </mxCell>
                <mxCell id="75" value="&lt;font style=&quot;font-size: 15px;&quot;&gt;complete_w&lt;/font&gt;" style="ellipse;whiteSpace=wrap;html=1;" vertex="1" parent="79">
                    <mxGeometry width="110" height="70" as="geometry"/>
                </mxCell>
                <mxCell id="77" value="&lt;font color=&quot;#66b2ff&quot; face=&quot;Courier New&quot;&gt;&lt;b&gt;w_ready := 0&lt;br&gt;&lt;/b&gt;&lt;/font&gt;" style="text;html=1;strokeColor=none;fillColor=none;align=left;verticalAlign=middle;whiteSpace=wrap;rounded=0;fontSize=15;" vertex="1" parent="79">
                    <mxGeometry x="100" y="50" width="120" height="30" as="geometry"/>
                </mxCell>
                <mxCell id="81" value="" style="edgeStyle=none;html=1;fontFamily=Helvetica;fontSize=15;fontColor=#FFFFFF;" edge="1" parent="1" source="75" target="80">
                    <mxGeometry relative="1" as="geometry"/>
                </mxCell>
                <mxCell id="86" value="" style="group" vertex="1" connectable="0" parent="1">
                    <mxGeometry x="-190" y="878.04" width="260" height="100" as="geometry"/>
                </mxCell>
                <mxCell id="80" value="&lt;font style=&quot;font-size: 15px;&quot;&gt;store_reg_data&lt;/font&gt;" style="ellipse;whiteSpace=wrap;html=1;" vertex="1" parent="86">
                    <mxGeometry width="110" height="70" as="geometry"/>
                </mxCell>
                <mxCell id="85" value="&lt;font color=&quot;#66b2ff&quot; face=&quot;Courier New&quot;&gt;&lt;b&gt;input_enable := 1&lt;br&gt;ram_in := reg_data&lt;br&gt;&lt;/b&gt;&lt;/font&gt;" style="text;html=1;strokeColor=none;fillColor=none;align=left;verticalAlign=middle;whiteSpace=wrap;rounded=0;fontSize=15;" vertex="1" parent="86">
                    <mxGeometry x="80" y="60" width="180" height="40" as="geometry"/>
                </mxCell>
                <mxCell id="91" value="" style="edgeStyle=none;html=1;fontFamily=Helvetica;fontSize=15;fontColor=#FFFFFF;" edge="1" parent="1" source="87" target="90">
                    <mxGeometry relative="1" as="geometry"/>
                </mxCell>
                <mxCell id="88" value="" style="edgeStyle=none;html=1;fontFamily=Helvetica;fontSize=15;fontColor=#FFFFFF;" edge="1" parent="1" source="80" target="87">
                    <mxGeometry relative="1" as="geometry"/>
                </mxCell>
                <mxCell id="95" value="" style="html=1;fontFamily=Helvetica;fontSize=15;fontColor=#FFFFFF;" edge="1" parent="1" source="90" target="94">
                    <mxGeometry relative="1" as="geometry"/>
                </mxCell>
                <mxCell id="96" value="b_ready" style="edgeLabel;html=1;align=center;verticalAlign=middle;resizable=0;points=[];fontSize=15;fontFamily=Helvetica;fontColor=#FFFFFF;" vertex="1" connectable="0" parent="95">
                    <mxGeometry x="0.1993" y="1" relative="1" as="geometry">
                        <mxPoint as="offset"/>
                    </mxGeometry>
                </mxCell>
                <mxCell id="90" value="&lt;span style=&quot;font-size: 15px;&quot;&gt;wait_b_ready&lt;/span&gt;" style="ellipse;whiteSpace=wrap;html=1;" vertex="1" parent="1">
                    <mxGeometry x="230" y="738.04" width="110" height="70" as="geometry"/>
                </mxCell>
                <mxCell id="92" style="edgeStyle=orthogonalEdgeStyle;html=1;fontFamily=Helvetica;fontSize=15;fontColor=#FFFFFF;curved=1;" edge="1" parent="1" source="90" target="90">
                    <mxGeometry relative="1" as="geometry">
                        <Array as="points">
                            <mxPoint x="180" y="820"/>
                        </Array>
                    </mxGeometry>
                </mxCell>
                <mxCell id="93" value="b_ready'" style="edgeLabel;html=1;align=center;verticalAlign=middle;resizable=0;points=[];fontSize=15;fontFamily=Helvetica;fontColor=#FFFFFF;" vertex="1" connectable="0" parent="92">
                    <mxGeometry x="-0.1497" y="1" relative="1" as="geometry">
                        <mxPoint x="-6" y="12" as="offset"/>
                    </mxGeometry>
                </mxCell>
                <mxCell id="99" value="" style="group" vertex="1" connectable="0" parent="1">
                    <mxGeometry x="230" y="588.04" width="230" height="80" as="geometry"/>
                </mxCell>
                <mxCell id="94" value="&lt;span style=&quot;font-size: 15px;&quot;&gt;complete_b&lt;/span&gt;" style="ellipse;whiteSpace=wrap;html=1;" vertex="1" parent="99">
                    <mxGeometry width="110" height="70" as="geometry"/>
                </mxCell>
                <mxCell id="97" value="&lt;font color=&quot;#66b2ff&quot; face=&quot;Courier New&quot;&gt;&lt;b&gt;b_valid := 0&lt;br&gt;&lt;/b&gt;&lt;/font&gt;" style="text;html=1;strokeColor=none;fillColor=none;align=left;verticalAlign=middle;whiteSpace=wrap;rounded=0;fontSize=15;" vertex="1" parent="99">
                    <mxGeometry x="100" y="50" width="130" height="30" as="geometry"/>
                </mxCell>
                <mxCell id="100" style="edgeStyle=orthogonalEdgeStyle;curved=1;html=1;fontFamily=Helvetica;fontSize=15;fontColor=#FFFFFF;" edge="1" parent="1" source="94" target="2">
                    <mxGeometry relative="1" as="geometry">
                        <Array as="points">
                            <mxPoint x="450" y="623"/>
                            <mxPoint x="450" y="50"/>
                            <mxPoint x="-75" y="50"/>
                        </Array>
                    </mxGeometry>
                </mxCell>
                <mxCell id="101" value="" style="group" vertex="1" connectable="0" parent="1">
                    <mxGeometry x="120" y="878.04" width="250" height="101.96000000000004" as="geometry"/>
                </mxCell>
                <mxCell id="87" value="&lt;span style=&quot;font-size: 15px;&quot;&gt;respond_b&lt;/span&gt;" style="ellipse;whiteSpace=wrap;html=1;" vertex="1" parent="101">
                    <mxGeometry width="110" height="70" as="geometry"/>
                </mxCell>
                <mxCell id="89" value="&lt;font color=&quot;#66b2ff&quot; face=&quot;Courier New&quot;&gt;&lt;b&gt;b_valid := 1&lt;br&gt;input_enable := 0&lt;br&gt;&lt;/b&gt;&lt;/font&gt;" style="text;html=1;strokeColor=none;fillColor=none;align=left;verticalAlign=middle;whiteSpace=wrap;rounded=0;fontSize=15;" vertex="1" parent="101">
                    <mxGeometry x="90" y="61.960000000000036" width="160" height="40" as="geometry"/>
                </mxCell>
            </root>
        </mxGraphModel>
    </diagram>
</mxfile>